<?xml version="1.0" encoding="UTF-8" standalone="no"?>
<svg width="177px" height="160px" viewBox="0 0 177 160" version="1.1" xmlns="http://www.w3.org/2000/svg" xmlns:xlink="http://www.w3.org/1999/xlink">
    <!-- Generator: Sketch 46.2 (44496) - http://www.bohemiancoding.com/sketch -->
    <title>Group 10</title>
    <desc>Created with Sketch.</desc>
    <defs>
        <circle id="path-1" cx="80" cy="80" r="80"></circle>
        <linearGradient x1="72.404952%" y1="-20.3266935%" x2="50%" y2="100%" id="linearGradient-3">
            <stop stop-color="#BDC8D4" offset="0%"></stop>
            <stop stop-color="#8897A9" offset="100%"></stop>
        </linearGradient>
        <linearGradient x1="146.566547%" y1="18.2999852%" x2="50%" y2="100%" id="linearGradient-4">
            <stop stop-color="#FFDFC9" offset="0%"></stop>
            <stop stop-color="#FFBB99" offset="100%"></stop>
        </linearGradient>
        <linearGradient x1="85.0572601%" y1="50%" x2="-30.0304592%" y2="50%" id="linearGradient-5">
            <stop stop-color="#BDC8D4" offset="0%"></stop>
            <stop stop-color="#8897A9" offset="100%"></stop>
        </linearGradient>
    </defs>
    <g id="Page-1" stroke="none" stroke-width="1" fill="none" fill-rule="evenodd">
        <g id="Details-View-Copy-23" transform="translate(-674.000000, -317.000000)">
            <g id="Group-10" transform="translate(674.000000, 317.000000)">
                <g id="Artwork">
                    <mask id="mask-2" fill="white">
                        <use xlink:href="#path-1"></use>
                    </mask>
                    <g id="clip">
                        <use fill-opacity="0.432659647" fill="#DDE5E9" fill-rule="evenodd" xlink:href="#path-1"></use>
                        <circle stroke-opacity="0" stroke="#979797" stroke-width="2" cx="80" cy="80" r="81"></circle>
                    </g>
                    <path d="M148.187144,57.6165028 C144.275125,62.7200762 137.15649,65.1851852 129.023569,65.1851852 C118.634288,65.1851852 109.90016,61.1625185 107.391255,52.7558136 C106.97361,52.7815473 106.55237,52.7946128 106.127946,52.7946128 C95.4169692,52.7946128 86.7340067,44.4734405 86.7340067,34.2087542 C86.7340067,23.9440679 95.4169692,15.6228956 106.127946,15.6228956 C106.153652,15.6228956 106.179347,15.6229436 106.205029,15.6230393 C107.045182,6.85993887 114.649306,0 123.905724,0 C129.149374,0 133.862789,2.20141432 137.116711,5.70314559 C141.091504,2.16066075 146.381473,0 152.188552,0 C164.535928,0 174.545455,9.76833273 174.545455,21.8181818 C174.545455,22.3998933 174.522127,22.9762876 174.476336,23.5465225 C182.14965,27.002811 187.474747,34.5780205 187.474747,43.3670034 C187.474747,55.4168525 177.465221,65.1851852 165.117845,65.1851852 C158.351311,65.1851852 152.286878,62.2515664 148.187144,57.6165028 Z" id="cloud" fill-opacity="0.696274909" fill="#FFFFFF" mask="url(#mask-2)"></path>
                    <path d="M33.2828286,37.1981118 C31.2326794,39.8727117 27.5020579,41.164587 23.2398855,41.164587 C17.7952353,41.164587 13.2179918,39.0564515 11.9031645,34.6507984 C11.6842931,34.6642848 11.4635358,34.671132 11.2411099,34.671132 C5.62787059,34.671132 1.07744108,30.3103037 1.07744108,24.9309494 C1.07744108,19.5515951 5.62787059,15.1907668 11.2411099,15.1907668 C11.2545815,15.1907668 11.2680471,15.190792 11.2815064,15.1908422 C11.7218005,10.5984152 15.7068493,7.003367 20.5578062,7.003367 C23.3058155,7.003367 25.7759472,8.15704937 27.4812113,9.99218127 C29.5642576,8.13569189 32.336541,7.003367 35.3798232,7.003367 C41.8506407,7.003367 47.0962747,12.1226002 47.0962747,18.4374944 C47.0962747,18.7423485 47.0840497,19.0444161 47.0600519,19.3432558 C51.0813612,21.1545728 53.8720539,25.1244686 53.8720539,29.7304597 C53.8720539,36.0453539 48.6264199,41.164587 42.1556024,41.164587 C38.6095041,41.164587 35.4313521,39.6271826 33.2828286,37.1981118 Z" id="cloud" fill-opacity="0.696274909" fill="#FFFFFF" mask="url(#mask-2)"></path>
                    <g id="mountains" mask="url(#mask-2)">
                        <g transform="translate(61.210438, 150.727273) scale(-1, 1) translate(-61.210438, -150.727273) translate(-75.289562, 72.727273)">
                            <path d="M51.8592367,8.62130907 C74.171398,8.41517675 99.5306605,26.168192 113.511086,30.4696727 C123.388281,33.5086762 142.706537,37.1219843 171.465853,41.309597 C117.189932,66.1623116 76.1585177,78.4982147 48.3716108,78.3173064 C20.5847039,78.1363981 4.46083361,60.7533599 8.52651283e-14,26.168192 C20.2759051,14.602353 37.5623173,8.75339207 51.8592367,8.62130907 Z" id="Rectangle" fill="#CCD3DC"></path>
                            <path d="M28.2604412,45.4788948 C75.7866678,119.095783 114.99382,155.904228 145.881899,155.904228 C176.769977,155.904228 218.959407,117.268348 272.450187,39.9965877 C249.162261,23.2336938 224.175,10.7633785 197.488404,2.58564175 C168.069665,-6.42932256 144.566747,15.7709852 95.8768294,37.1704324 C82.9079975,42.8702948 60.3692014,45.6397823 28.2604412,45.4788948 Z" id="Rectangle-Copy" fill="#DAE0E6"></path>
                        </g>
                    </g>
                    <g id="person" mask="url(#mask-2)">
                        <g transform="translate(16.700337, 45.791246)">
                            <path d="M25.0982542,59.9440192 C34.1855816,64.1670824 40.8930208,66.3023495 45.2205718,66.3498204 C54.2315335,65.9222802 72.619015,43.1883213 75.3738075,39.9168159 C75.3704495,37.2485277 73.9857949,35.385598 71.2198436,34.3280266 C55.7421537,47.7611668 46.6046986,53.7534296 43.8074781,52.3048149 C41.0102576,50.8562001 36.7593775,47.3800059 31.0548377,41.876232 C28.276712,43.4634004 26.5135692,45.3442564 25.7654091,47.5188001 C25.0172491,49.6933438 24.7948641,53.8350835 25.0982542,59.9440192 Z" id="Path-14" fill="#051521" transform="translate(50.170381, 50.338924) rotate(-22.000000) translate(-50.170381, -50.338924) "></path>
                            <g id="Group-2" stroke-width="1" fill="none" transform="translate(78.515371, 23.182209) rotate(-6.000000) translate(-78.515371, -23.182209) translate(50.015371, 13.682209)">
                                <rect id="Rectangle-24" fill="url(#linearGradient-3)" x="0" y="2.83630865" width="14.865696" height="12.4680031" rx="0.54"></rect>
                                <rect id="Rectangle-24-Copy-3" fill="#7C8A9B" x="14.4488467" y="2.00754765" width="17.7426438" height="14.7855365" rx="0.54"></rect>
                                <rect id="Rectangle-24-Copy" fill="url(#linearGradient-3)" x="15.8247732" y="0.918154324" width="18.2224661" height="16.3043118" rx="0.54"></rect>
                                <rect id="Rectangle-24-Copy-4" fill="#7C8A9B" x="33.3173533" y="0.331141229" width="23.0178519" height="18.0062376" rx="0.54"></rect>
                            </g>
                            <g id="Group-5" stroke-width="1" fill="none" transform="translate(5.322793, 38.291173)">
                                <path d="M19.945637,1.21255542 L29.4408525,7.89313304 C29.0261468,11.3643887 29.1770682,14.9266166 29.8936167,18.5798166 C29.8936167,23.5926643 29.5854181,26.8112564 28.9690209,28.2355929 L20.0976989,28.2355929 C17.2971576,23.1285277 15.896887,18.7654919 15.896887,15.1464855 C17.1035572,12.0481293 18.4531405,7.4034859 19.945637,1.21255542 Z" id="Rectangle-2" fill="#FAB795" transform="translate(22.895252, 14.724074) rotate(-10.000000) translate(-22.895252, -14.724074) "></path>
                                <path d="M22.5744453,12.3676221 L22.5744453,12.3676221 L22.5744453,12.3676221 C28.2355065,11.9863069 33.5958602,14.953243 36.2786125,19.9528284 C38.6426295,24.3584264 40.0858404,28.079084 40.6082416,31.1148032 C42.2283319,40.52929 41.1910611,41.4806782 41.1910611,52.9238123 C41.1910611,60.5525684 42.0518317,73.200254 43.773373,90.8668691 C39.1158324,92.6071083 32.7357879,93.4772279 24.6332394,93.4772279 C16.530691,93.4772279 8.42814257,91.5352717 0.325594135,87.6513591 C5.08224524,76.2060506 7.90171242,67.2990777 8.78399568,60.9304407 C9.46610469,56.0067331 11.7132718,52.5876055 11.741103,35.6763608 C11.7461018,32.6389165 12.0832523,28.0146045 12.7525546,21.8034249 L12.752591,21.8034288 C13.3034227,16.6916657 17.4447135,12.7131482 22.5744453,12.3676221 Z" id="Rectangle-23" fill="#183247"></path>
                            </g>
                            <g id="Group-3" stroke-width="1" fill="none">
                                <path d="M25.4247928,48.4225007 C26.7617815,49.9073771 30.4271471,48.2468122 36.4208897,43.440806 L39.7242681,45.3032322 C40.4841844,40.4385497 41.7785195,37.108925 43.6072734,35.3143582 C46.3504041,32.6225079 47.9185769,27.2086496 47.9515088,25.1639845 C48.1064375,15.5448336 40.1369538,7.70968734 30.4972117,7.70968734 C20.8574696,7.70968734 13.0429146,15.5242423 13.0429146,25.1639845 C13.0429146,29.6027289 14.5982811,33.6551151 16.8509189,37.4378141 C19.4777893,41.8489363 22.3994573,45.0625252 25.4247928,48.4225007 Z" id="Oval-12" fill="url(#linearGradient-4)" transform="translate(30.498322, 28.328958) rotate(-48.000000) translate(-30.498322, -28.328958) "></path>
                                <path d="M10.7437194,24.8483809 C10.3385614,30.067127 12.2756825,35.409787 16.4663414,39.1830732 C17.8961,40.3997122 20.4009697,42.3415029 22.8808864,43.4157386 C24.1062881,40.8396209 24.3997557,38.5456939 24.2114861,36.5813435 C23.6546486,30.7714617 24.7383105,28.764714 25.3921292,28.1971431 C27.9809488,25.4691141 30.0096237,28.7581239 32.3003939,27.3120562 C36.8871844,24.4166069 41.183066,19.3038389 42.7289067,16.936046 C41.6510974,15.0529256 40.8897664,14.5327982 39.8247503,13.240932 C35.5749868,9.23155714 29.7986566,7.92475778 24.4706324,9.10817043 L24.6521041,3.91150033 C24.7132717,2.15988763 23.3428953,0.69033879 21.5912826,0.629171126 L21.5912826,0.629171126 L21.5912826,0.629171126 C20.2932026,0.583841174 19.1500307,1.32470841 18.6201736,2.42430175 C18.0733228,0.987174012 16.5462576,0.12292219 14.9952991,0.452588583 L14.9952991,0.452588583 L14.9952991,0.452588583 C13.497251,0.771008547 12.4726092,2.09791252 12.4809998,3.57155175 C11.4680867,2.16581965 9.51026168,1.83101397 8.08652815,2.82792292 L8.08652815,2.82792292 L8.08652815,2.82792292 C7.1078025,3.513234 6.6341258,4.65096066 6.75021781,5.76063327 C5.47281663,5.37358919 4.03791452,5.82570427 3.23069799,6.97852896 L3.23069799,6.97852896 L3.23069799,6.97852896 C2.53751644,7.96849481 2.48819892,9.21668587 2.99507314,10.2258878 C2.02940638,10.5570915 1.24072902,11.3473836 0.956637955,12.4076259 L0.956637955,12.4076259 L0.956637955,12.4076259 C0.641764852,13.5827483 1.02951315,14.7806086 1.86236156,15.5551667 C0.854268132,16.1750778 0.235105863,17.3364364 0.367067898,18.5919713 C0.486575163,19.7290069 1.19259276,20.6624123 2.1529151,21.1231725 C1.36583056,21.912487 1.01885743,23.0936863 1.34789879,24.2411899 C1.83100298,25.9259744 3.58842401,26.9001288 5.27320853,26.4170246 L10.7437194,24.8483809 Z" id="Combined-Shape" fill="#966060"></path>
                                <path d="M10.9290386,24.7465453 C17.5888334,21.203577 22.093275,16.0273173 24.4423635,9.21776626 C17.8496747,11.4288515 13.3452331,16.6051112 10.9290386,24.7465453 Z" id="Path-13" fill="#3E3E3E"></path>
                            </g>
                        </g>
                    </g>
                </g>
                <path d="M101.082017,54.8050145 L172.731556,54.8050145 L172.731556,54.8050138 C172.89772,54.8050138 173.054632,54.8815134 173.156975,55.0124195 C175.416763,57.9028911 176.546656,60.9441943 176.546656,64.136329 C176.546656,67.3289405 175.416425,70.5226855 173.155963,73.7175641 L173.155933,73.7175429 C173.054719,73.8605954 172.890379,73.9456349 172.715142,73.9456349 L101.082017,73.9456349 L101.082017,73.9456349 C100.783783,73.9456349 100.542017,73.7038686 100.542017,73.4056349 L100.542017,55.3450145 L100.542017,55.3450145 C100.542017,55.0467807 100.783783,54.8050145 101.082017,54.8050145 Z" id="Rectangle-24-Copy-2" fill="url(#linearGradient-5)" transform="translate(138.544336, 64.375324) rotate(-6.000000) translate(-138.544336, -64.375324) "></path>
                <path d="M93.0046129,78.9722219 C93.4134158,75.8439067 94.2201433,73.2368709 95.4247954,71.1511147 C97.2317737,68.0224803 103.014978,68.7230368 103.81761,71.6787632 C104.251478,73.2765001 102.821,75.1685925 101.399064,77.7013098 C100.540113,79.2312522 99.747159,82.2237149 98.528776,82.6369115 C96.6007308,83.2907795 94.7593431,82.0692163 93.0046129,78.9722219 Z" id="Path-2" fill="url(#linearGradient-4)" transform="translate(98.450597, 75.959074) scale(-1, 1) rotate(-56.000000) translate(-98.450597, -75.959074) "></path>
                <path d="M47.2252713,111.930357 C57.48536,116.698426 65.058425,119.109259 69.9444663,119.162856 C80.1183339,118.68014 100.878804,93.0122597 103.989115,89.3185515 C103.985324,86.3059085 102.421973,84.2025591 99.2990634,83.0085033 C81.8239066,98.1752519 71.507221,104.940844 68.3490063,103.305279 C65.1907917,101.669713 60.391316,97.7449004 53.9505792,91.5308393 C50.8139237,93.322839 48.8232392,95.4464282 47.9785256,97.9016067 C47.1338121,100.356785 46.8827273,105.033035 47.2252713,111.930357 Z" id="Path-14" fill="#183247" transform="translate(75.533071, 101.085680) rotate(-16.000000) translate(-75.533071, -101.085680) "></path>
            </g>
        </g>
    </g>
</svg>